<svg width="162" height="100" viewBox="0 0 162 100" fill="none" xmlns="http://www.w3.org/2000/svg">
<mask id="path-1-inside-1_8533_484" fill="white">
<path fill-rule="evenodd" clip-rule="evenodd" d="M143 83.8696H159C159 86.9517 158.129 89.8302 156.619 92.2723C157.994 94.8141 159.805 97.1764 162 99.2436C158.724 100.331 155.055 100.286 151.619 98.8488C151.128 98.6432 150.653 98.4143 150.197 98.1637C148.033 99.255 145.588 99.8696 143 99.8696V83.8696Z"/>
</mask>
<path fill-rule="evenodd" clip-rule="evenodd" d="M143 83.8696H159C159 86.9517 158.129 89.8302 156.619 92.2723C157.994 94.8141 159.805 97.1764 162 99.2436C158.724 100.331 155.055 100.286 151.619 98.8488C151.128 98.6432 150.653 98.4143 150.197 98.1637C148.033 99.255 145.588 99.8696 143 99.8696V83.8696Z" fill="#101010"/>
<path d="M159 83.8696V83.3696H159.5V83.8696H159ZM143 83.8696H142.5V83.3696H143V83.8696ZM156.619 92.2723L156.179 92.5102L156.041 92.2556L156.193 92.0093L156.619 92.2723ZM162 99.2436L162.343 98.8796L162.953 99.4541L162.158 99.7181L162 99.2436ZM151.619 98.8488L151.812 98.3875L151.619 98.8488ZM150.197 98.1637L149.971 97.7173L150.206 97.5988L150.437 97.7253L150.197 98.1637ZM143 99.8696V100.37H142.5V99.8696H143ZM159 84.3696H143V83.3696H159V84.3696ZM156.193 92.0093C157.656 89.644 158.5 86.8562 158.5 83.8696H159.5C159.5 87.0472 158.601 90.0165 157.044 92.5352L156.193 92.0093ZM157.058 92.0344C158.408 94.5287 160.186 96.8485 162.343 98.8796L161.657 99.6075C159.424 97.5042 157.58 95.0996 156.179 92.5102L157.058 92.0344ZM162.158 99.7181C158.771 100.843 154.977 100.795 151.427 99.3101L151.812 98.3875C155.132 99.7759 158.676 99.8203 161.842 98.7691L162.158 99.7181ZM151.427 99.3101C150.919 99.0977 150.428 98.8611 149.956 98.6021L150.437 97.7253C150.878 97.9674 151.337 98.1888 151.812 98.3875L151.427 99.3101ZM143 99.3696C145.508 99.3696 147.876 98.7742 149.971 97.7173L150.422 98.6101C148.19 99.7358 145.668 100.37 143 100.37V99.3696ZM143.5 83.8696V99.8696H142.5V83.8696H143.5Z" fill="#9BA9B0" mask="url(#path-1-inside-1_8533_484)"/>
<mask id="path-3-inside-2_8533_484" fill="white">
<path d="M159 8.00001C159 3.58173 155.418 0 151 0H143V84.8695H159V8.00001Z"/>
</mask>
<path d="M159 8.00001C159 3.58173 155.418 0 151 0H143V84.8695H159V8.00001Z" fill="#101010"/>
<path d="M159.5 8C159.5 3.30558 155.694 -0.5 151 -0.5H142.5L143.5 0.5H151C155.142 0.5 158.5 3.85786 158.5 8H159.5ZM143 84.8695H159H143ZM159.5 84.8695V8C159.5 3.30558 155.694 -0.5 151 -0.5V0.5C155.142 0.5 158.5 3.85786 158.5 8V84.8695H159.5ZM142.5 -0.5V84.8695H143.5V0.5L142.5 -0.5Z" fill="#9BA9B0" mask="url(#path-3-inside-2_8533_484)"/>
<mask id="path-5-inside-3_8533_484" fill="white">
<path d="M144 0H13C8.58173 0 5 3.58172 5 8V92C5 96.4183 8.58173 100 13 100H144V0Z"/>
</mask>
<path d="M144 0H13C8.58173 0 5 3.58172 5 8V92C5 96.4183 8.58173 100 13 100H144V0Z" fill="#101010"/>
<path d="M144 -0.5H13C8.30557 -0.5 4.5 3.30558 4.5 8H5.5C5.5 3.85786 8.85786 0.5 13 0.5H144V-0.5ZM4.5 92C4.5 96.6944 8.30557 100.5 13 100.5H144V99.5H13C8.85786 99.5 5.5 96.1421 5.5 92H4.5ZM144 100V0V100ZM13 -0.5C8.30557 -0.5 4.5 3.30558 4.5 8V92C4.5 96.6944 8.30557 100.5 13 100.5V99.5C8.85786 99.5 5.5 96.1421 5.5 92V8C5.5 3.85786 8.85786 0.5 13 0.5V-0.5Z" fill="#9BA9B0" mask="url(#path-5-inside-3_8533_484)"/>
<rect x="21" y="12" width="123" height="22" rx="11" fill="#F7F5FF" fill-opacity="0.25"/>
<rect x="21.25" y="12.25" width="122.5" height="21.5" rx="10.75" stroke="#EBE7FF" stroke-opacity="0.1" stroke-width="0.5"/>
<g clip-path="url(#clip0_8533_484)">
<path d="M39.6365 21.4498C39.4441 21.4493 39.2541 21.4077 39.0791 21.3277C38.9041 21.2478 38.7483 21.1314 38.622 20.9863C38.5553 21.2447 38.4135 21.4775 38.2146 21.6553C38.0156 21.8332 37.7685 21.9481 37.5043 21.9855C37.2401 22.023 36.9707 21.9813 36.7302 21.8657C36.4897 21.7502 36.2888 21.566 36.153 21.3363C36.0339 21.5385 35.8642 21.7061 35.6605 21.8226C35.4569 21.939 35.2263 22.0003 34.9917 22.0003C34.7571 22.0003 34.5265 21.939 34.3229 21.8226C34.1192 21.7061 33.9495 21.5385 33.8305 21.3363C33.6946 21.566 33.4937 21.7502 33.2532 21.8657C33.0127 21.9813 32.7433 22.023 32.4791 21.9855C32.2149 21.9481 31.9678 21.8332 31.7688 21.6553C31.5699 21.4775 31.4282 21.2447 31.3615 20.9863C31.2351 21.1314 31.0793 21.2478 30.9043 21.3277C30.7293 21.4077 30.5393 21.4493 30.347 21.4498C30.3105 21.4498 30.2775 21.4398 30.2415 21.4368V27.9998C30.2415 28.1324 30.2941 28.2596 30.3879 28.3534C30.4817 28.4472 30.6088 28.4998 30.7415 28.4998H39.2415C39.3741 28.4998 39.5012 28.4472 39.595 28.3534C39.6888 28.2596 39.7415 28.1324 39.7415 27.9998V21.4383C39.706 21.4413 39.673 21.4498 39.6365 21.4498Z" fill="#F4F2FF"/>
<path d="M39.6365 21.4498C39.4441 21.4493 39.2541 21.4077 39.0791 21.3277C38.9041 21.2478 38.7483 21.1314 38.622 20.9863C38.5553 21.2447 38.4135 21.4775 38.2146 21.6553C38.0156 21.8332 37.7685 21.9481 37.5043 21.9855C37.2401 22.023 36.9707 21.9813 36.7302 21.8657C36.4897 21.7502 36.2888 21.566 36.153 21.3363C36.0339 21.5385 35.8642 21.7061 35.6605 21.8226C35.4569 21.939 35.2263 22.0003 34.9917 22.0003C34.7571 22.0003 34.5265 21.939 34.3229 21.8226C34.1192 21.7061 33.9495 21.5385 33.8305 21.3363C33.6946 21.566 33.4937 21.7502 33.2532 21.8657C33.0127 21.9813 32.7433 22.023 32.4791 21.9855C32.2149 21.9481 31.9678 21.8332 31.7688 21.6553C31.5699 21.4775 31.4282 21.2447 31.3615 20.9863C31.2351 21.1314 31.0793 21.2478 30.9043 21.3277C30.7293 21.4077 30.5393 21.4493 30.347 21.4498C30.3105 21.4498 30.2775 21.4398 30.2415 21.4368V27.9998C30.2415 28.1324 30.2941 28.2596 30.3879 28.3534C30.4817 28.4472 30.6088 28.4998 30.7415 28.4998H39.2415C39.3741 28.4998 39.5012 28.4472 39.595 28.3534C39.6888 28.2596 39.7415 28.1324 39.7415 27.9998V21.4383C39.706 21.4413 39.673 21.4498 39.6365 21.4498Z" stroke="#101010" stroke-width="0.5" stroke-linecap="round" stroke-linejoin="round"/>
<path d="M33.8315 19.5V21.335C33.6961 21.565 33.4956 21.7497 33.2552 21.8658C33.0149 21.9819 32.7456 22.0242 32.4812 21.9873C32.2169 21.9504 31.9695 21.8359 31.7702 21.6584C31.5708 21.4809 31.4286 21.2483 31.3615 20.99L31.3665 19.5H33.8315Z" fill="#F4F2FF" stroke="#101010" stroke-width="0.5" stroke-linecap="round" stroke-linejoin="round"/>
<path d="M29.2415 19.5H31.3665L31.3615 20.99C31.2345 21.1342 31.0784 21.2497 30.9034 21.329C30.7285 21.4083 30.5386 21.4495 30.3465 21.45C30.1481 21.4501 29.952 21.4075 29.7715 21.325C29.609 21.2421 29.4731 21.1152 29.3794 20.9587C29.2856 20.8021 29.2379 20.6224 29.2415 20.44V19.5Z" fill="#BCAEFF" stroke="#101010" stroke-width="0.5" stroke-linecap="round" stroke-linejoin="round"/>
<path d="M36.15 19.5V21.335C36.0315 21.5375 35.8621 21.7054 35.6586 21.8221C35.4551 21.9388 35.2245 22.0002 34.99 22.0002C34.7554 22.0002 34.5249 21.9388 34.3214 21.8221C34.1178 21.7054 33.9484 21.5375 33.83 21.335V19.5H36.15Z" fill="#BCAEFF" stroke="#101010" stroke-width="0.5" stroke-linecap="round" stroke-linejoin="round"/>
<path d="M38.6215 20.99C38.5543 21.2483 38.4121 21.4809 38.2128 21.6584C38.0135 21.8359 37.766 21.9504 37.5017 21.9873C37.2374 22.0242 36.968 21.9819 36.7277 21.8658C36.4874 21.7497 36.2869 21.565 36.1515 21.335V19.5H38.6165L38.6215 20.99Z" fill="#F4F2FF" stroke="#101010" stroke-width="0.5" stroke-linecap="round" stroke-linejoin="round"/>
<path d="M40.7415 19.5V20.44C40.7451 20.6224 40.6974 20.8021 40.6036 20.9587C40.5099 21.1152 40.374 21.2421 40.2115 21.325C40.031 21.4075 39.8349 21.4501 39.6365 21.45C39.4444 21.4495 39.2545 21.4083 39.0796 21.329C38.9046 21.2497 38.7484 21.1342 38.6215 20.99L38.6165 19.5H40.7415Z" fill="#BCAEFF" stroke="#101010" stroke-width="0.5" stroke-linecap="round" stroke-linejoin="round"/>
<path d="M31.9915 17.5L31.3665 19.5H29.2415L30.1 17.775C30.1419 17.6918 30.2062 17.622 30.2858 17.5734C30.3653 17.5248 30.4568 17.4994 30.55 17.5H31.9915Z" fill="#F4F2FF" stroke="#101010" stroke-width="0.5" stroke-linecap="round" stroke-linejoin="round"/>
<path d="M33.8315 17.5V19.5H31.3665L31.9915 17.5H33.8315Z" fill="white" stroke="#101010" stroke-width="0.5" stroke-linecap="round" stroke-linejoin="round"/>
<path d="M33.8315 17.5H36.1515V19.5H33.8315V17.5Z" fill="#F4F2FF" stroke="#101010" stroke-width="0.5" stroke-linecap="round" stroke-linejoin="round"/>
<path d="M38.6165 19.5H36.1515V17.5H37.9915L38.6165 19.5Z" fill="white" stroke="#101010" stroke-width="0.5" stroke-linecap="round" stroke-linejoin="round"/>
<path d="M40.7415 19.5H38.6165L37.9915 17.5H39.4315C39.5246 17.4994 39.6161 17.5248 39.6957 17.5734C39.7752 17.622 39.8395 17.6918 39.8815 17.775L40.7415 19.5Z" fill="#F4F2FF" stroke="#101010" stroke-width="0.5" stroke-linecap="round" stroke-linejoin="round"/>
<path d="M37.0835 24.5015L36.25 27.0015H33.75L33 24.5015H37.0835Z" fill="#BCAEFF" stroke="#101010" stroke-width="0.5" stroke-linecap="round" stroke-linejoin="round"/>
<path d="M33.75 24.5015L34.5 23.2515" stroke="#101010" stroke-width="0.5" stroke-linecap="round" stroke-linejoin="round"/>
<path d="M36.25 24.5015L35.5 23.2515" stroke="#101010" stroke-width="0.5" stroke-linecap="round" stroke-linejoin="round"/>
</g>
<path d="M47.435 27V24.025L45 19.8H46.22L47.965 22.825L49.71 19.8H50.93L48.495 24.025V27H47.435ZM53.172 27.15C52.632 27.15 52.1636 27.0283 51.767 26.785C51.3703 26.5417 51.0636 26.2067 50.847 25.78C50.6336 25.35 50.527 24.855 50.527 24.295C50.527 23.7317 50.637 23.2367 50.857 22.81C51.077 22.38 51.3853 22.0467 51.782 21.81C52.1786 21.57 52.642 21.45 53.172 21.45C53.712 21.45 54.1803 21.5717 54.577 21.815C54.9736 22.0583 55.2803 22.3933 55.497 22.82C55.7136 23.2467 55.822 23.7383 55.822 24.295C55.822 24.8583 55.712 25.355 55.492 25.785C55.2753 26.2117 54.9686 26.5467 54.572 26.79C54.1753 27.03 53.7086 27.15 53.172 27.15ZM53.172 26.165C53.6886 26.165 54.0736 25.9917 54.327 25.645C54.5836 25.295 54.712 24.845 54.712 24.295C54.712 23.7317 54.582 23.2817 54.322 22.945C54.0653 22.605 53.682 22.435 53.172 22.435C52.822 22.435 52.5336 22.515 52.307 22.675C52.0803 22.8317 51.912 23.05 51.802 23.33C51.692 23.6067 51.637 23.9283 51.637 24.295C51.637 24.8617 51.767 25.315 52.027 25.655C52.287 25.995 52.6686 26.165 53.172 26.165ZM58.9557 27.145C58.5824 27.145 58.269 27.085 58.0157 26.965C57.7624 26.845 57.5557 26.6883 57.3957 26.495C57.239 26.2983 57.119 26.085 57.0357 25.855C56.9524 25.625 56.8957 25.4 56.8657 25.18C56.8357 24.96 56.8207 24.7667 56.8207 24.6V21.6H57.8807V24.255C57.8807 24.465 57.8974 24.6817 57.9307 24.905C57.9674 25.125 58.034 25.33 58.1307 25.52C58.2307 25.71 58.369 25.8633 58.5457 25.98C58.7257 26.0967 58.959 26.155 59.2457 26.155C59.4324 26.155 59.609 26.125 59.7757 26.065C59.9424 26.0017 60.0874 25.9017 60.2107 25.765C60.3374 25.6283 60.4357 25.4483 60.5057 25.225C60.579 25.0017 60.6157 24.73 60.6157 24.41L61.2657 24.655C61.2657 25.145 61.174 25.5783 60.9907 25.955C60.8074 26.3283 60.544 26.62 60.2007 26.83C59.8574 27.04 59.4424 27.145 58.9557 27.145ZM60.7407 27V25.44H60.6157V21.6H61.6707V27H60.7407ZM64.275 29.4V28.41H64.55C64.8267 28.41 65.0283 28.3433 65.155 28.21C65.285 28.0767 65.35 27.8717 65.35 27.595V21.6H66.4V28.02C66.4 28.46 66.2783 28.8 66.035 29.04C65.795 29.28 65.45 29.4 65 29.4H64.275ZM65.35 20.715V19.7H66.4V20.715H65.35ZM70.1739 27.15C69.6339 27.15 69.1656 27.0283 68.7689 26.785C68.3722 26.5417 68.0656 26.2067 67.8489 25.78C67.6356 25.35 67.5289 24.855 67.5289 24.295C67.5289 23.7317 67.6389 23.2367 67.8589 22.81C68.0789 22.38 68.3872 22.0467 68.7839 21.81C69.1806 21.57 69.6439 21.45 70.1739 21.45C70.7139 21.45 71.1822 21.5717 71.5789 21.815C71.9756 22.0583 72.2822 22.3933 72.4989 22.82C72.7156 23.2467 72.8239 23.7383 72.8239 24.295C72.8239 24.8583 72.7139 25.355 72.4939 25.785C72.2772 26.2117 71.9706 26.5467 71.5739 26.79C71.1772 27.03 70.7106 27.15 70.1739 27.15ZM70.1739 26.165C70.6906 26.165 71.0756 25.9917 71.3289 25.645C71.5856 25.295 71.7139 24.845 71.7139 24.295C71.7139 23.7317 71.5839 23.2817 71.3239 22.945C71.0672 22.605 70.6839 22.435 70.1739 22.435C69.8239 22.435 69.5356 22.515 69.3089 22.675C69.0822 22.8317 68.9139 23.05 68.8039 23.33C68.6939 23.6067 68.6389 23.9283 68.6389 24.295C68.6389 24.8617 68.7689 25.315 69.0289 25.655C69.2889 25.995 69.6706 26.165 70.1739 26.165ZM74.0227 20.715V19.7H75.0677V20.715H74.0227ZM74.0227 27V21.6H75.0677V27H74.0227ZM80.3591 27V24.345C80.3591 24.135 80.3408 23.92 80.3041 23.7C80.2708 23.4767 80.2041 23.27 80.1041 23.08C80.0075 22.89 79.8691 22.7367 79.6891 22.62C79.5125 22.5033 79.2808 22.445 78.9941 22.445C78.8075 22.445 78.6308 22.4767 78.4641 22.54C78.2975 22.6 78.1508 22.6983 78.0241 22.835C77.9008 22.9717 77.8025 23.1517 77.7291 23.375C77.6591 23.5983 77.6241 23.87 77.6241 24.19L76.9741 23.945C76.9741 23.455 77.0658 23.0233 77.2491 22.65C77.4325 22.2733 77.6958 21.98 78.0391 21.77C78.3825 21.56 78.7975 21.455 79.2841 21.455C79.6575 21.455 79.9708 21.515 80.2241 21.635C80.4775 21.755 80.6825 21.9133 80.8391 22.11C80.9991 22.3033 81.1208 22.515 81.2041 22.745C81.2875 22.975 81.3441 23.2 81.3741 23.42C81.4041 23.64 81.4191 23.8333 81.4191 24V27H80.3591ZM76.5641 27V21.6H77.4991V23.16H77.6241V27H76.5641ZM85.0481 27.15C84.5115 27.15 84.0398 27.0333 83.6331 26.8C83.2298 26.5633 82.9148 26.235 82.6881 25.815C82.4648 25.3917 82.3531 24.9017 82.3531 24.345C82.3531 23.755 82.4631 23.2433 82.6831 22.81C82.9065 22.3767 83.2165 22.0417 83.6131 21.805C84.0098 21.5683 84.4715 21.45 84.9981 21.45C85.5481 21.45 86.0165 21.5783 86.4031 21.835C86.7898 22.0883 87.0781 22.45 87.2681 22.92C87.4615 23.39 87.5381 23.9483 87.4981 24.595H86.4531V24.215C86.4465 23.5883 86.3265 23.125 86.0931 22.825C85.8631 22.525 85.5115 22.375 85.0381 22.375C84.5148 22.375 84.1215 22.54 83.8581 22.87C83.5948 23.2 83.4631 23.6767 83.4631 24.3C83.4631 24.8933 83.5948 25.3533 83.8581 25.68C84.1215 26.0033 84.5015 26.165 84.9981 26.165C85.3248 26.165 85.6065 26.0917 85.8431 25.945C86.0831 25.795 86.2698 25.5817 86.4031 25.305L87.4281 25.63C87.2181 26.1133 86.8998 26.4883 86.4731 26.755C86.0465 27.0183 85.5715 27.15 85.0481 27.15ZM83.1231 24.595V23.78H86.9781V24.595H83.1231ZM90.7649 27.15C90.2616 27.15 89.8266 27.025 89.4599 26.775C89.0966 26.525 88.8149 26.185 88.6149 25.755C88.4183 25.3217 88.3199 24.835 88.3199 24.295C88.3199 23.7517 88.4199 23.2667 88.6199 22.84C88.8199 22.41 89.1033 22.0717 89.4699 21.825C89.8399 21.575 90.2783 21.45 90.7849 21.45C91.2949 21.45 91.7233 21.575 92.0699 21.825C92.4199 22.0717 92.6833 22.41 92.8599 22.84C93.0399 23.27 93.1299 23.755 93.1299 24.295C93.1299 24.835 93.0399 25.32 92.8599 25.75C92.6799 26.18 92.4149 26.5217 92.0649 26.775C91.7149 27.025 91.2816 27.15 90.7649 27.15ZM90.9099 26.205C91.2533 26.205 91.5333 26.1233 91.7499 25.96C91.9666 25.7967 92.1249 25.5717 92.2249 25.285C92.3249 24.9983 92.3749 24.6683 92.3749 24.295C92.3749 23.9217 92.3233 23.5917 92.2199 23.305C92.1199 23.0183 91.9633 22.795 91.7499 22.635C91.5399 22.475 91.2716 22.395 90.9449 22.395C90.5983 22.395 90.3133 22.48 90.0899 22.65C89.8666 22.82 89.6999 23.0483 89.5899 23.335C89.4833 23.6217 89.4299 23.9417 89.4299 24.295C89.4299 24.6517 89.4833 24.975 89.5899 25.265C89.6999 25.5517 89.8633 25.78 90.0799 25.95C90.2999 26.12 90.5766 26.205 90.9099 26.205ZM92.3749 27V23.115H92.2549V19.8H93.3049V27H92.3749ZM99.7959 27C99.4559 27.0667 99.1225 27.095 98.7959 27.085C98.4692 27.075 98.1775 27.0117 97.9209 26.895C97.6642 26.7783 97.4709 26.595 97.3409 26.345C97.2242 26.1217 97.1609 25.895 97.1509 25.665C97.1442 25.4317 97.1409 25.1683 97.1409 24.875V20.1H98.1909V24.825C98.1909 25.0417 98.1925 25.23 98.1959 25.39C98.2025 25.55 98.2375 25.685 98.3009 25.795C98.4209 26.0017 98.6109 26.12 98.8709 26.15C99.1342 26.1767 99.4425 26.165 99.7959 26.115V27ZM96.1059 22.44V21.6H99.7959V22.44H96.1059ZM104.724 27V24.345C104.724 24.135 104.706 23.92 104.669 23.7C104.636 23.4767 104.569 23.27 104.469 23.08C104.373 22.89 104.234 22.7367 104.054 22.62C103.878 22.5033 103.646 22.445 103.359 22.445C103.173 22.445 102.996 22.4767 102.829 22.54C102.663 22.6 102.516 22.6983 102.389 22.835C102.266 22.9717 102.168 23.1517 102.094 23.375C102.024 23.5983 101.989 23.87 101.989 24.19L101.339 23.945C101.339 23.455 101.431 23.0233 101.614 22.65C101.798 22.2733 102.061 21.98 102.404 21.77C102.748 21.56 103.163 21.455 103.649 21.455C104.023 21.455 104.336 21.515 104.589 21.635C104.843 21.755 105.048 21.9133 105.204 22.11C105.364 22.3033 105.486 22.515 105.569 22.745C105.653 22.975 105.709 23.2 105.739 23.42C105.769 23.64 105.784 23.8333 105.784 24V27H104.724ZM100.929 27V19.8H101.864V23.685H101.989V27H100.929ZM109.482 27.15C108.945 27.15 108.473 27.0333 108.067 26.8C107.663 26.5633 107.348 26.235 107.122 25.815C106.898 25.3917 106.787 24.9017 106.787 24.345C106.787 23.755 106.897 23.2433 107.117 22.81C107.34 22.3767 107.65 22.0417 108.047 21.805C108.443 21.5683 108.905 21.45 109.432 21.45C109.982 21.45 110.45 21.5783 110.837 21.835C111.223 22.0883 111.512 22.45 111.702 22.92C111.895 23.39 111.972 23.9483 111.932 24.595H110.887V24.215C110.88 23.5883 110.76 23.125 110.527 22.825C110.297 22.525 109.945 22.375 109.472 22.375C108.948 22.375 108.555 22.54 108.292 22.87C108.028 23.2 107.897 23.6767 107.897 24.3C107.897 24.8933 108.028 25.3533 108.292 25.68C108.555 26.0033 108.935 26.165 109.432 26.165C109.758 26.165 110.04 26.0917 110.277 25.945C110.517 25.795 110.703 25.5817 110.837 25.305L111.862 25.63C111.652 26.1133 111.333 26.4883 110.907 26.755C110.48 27.0183 110.005 27.15 109.482 27.15ZM107.557 24.595V23.78H111.412V24.595H107.557ZM117.12 27.145C116.464 27.145 115.929 27 115.515 26.71C115.102 26.42 114.849 26.0117 114.755 25.485L115.825 25.32C115.892 25.6 116.045 25.8217 116.285 25.985C116.529 26.145 116.83 26.225 117.19 26.225C117.517 26.225 117.772 26.1583 117.955 26.025C118.142 25.8917 118.235 25.7083 118.235 25.475C118.235 25.3383 118.202 25.2283 118.135 25.145C118.072 25.0583 117.937 24.9767 117.73 24.9C117.524 24.8233 117.209 24.7283 116.785 24.615C116.322 24.495 115.954 24.3667 115.68 24.23C115.41 24.09 115.217 23.9283 115.1 23.745C114.987 23.5583 114.93 23.3333 114.93 23.07C114.93 22.7433 115.017 22.4583 115.19 22.215C115.364 21.9717 115.607 21.7833 115.92 21.65C116.237 21.5167 116.607 21.45 117.03 21.45C117.444 21.45 117.812 21.515 118.135 21.645C118.459 21.775 118.72 21.96 118.92 22.2C119.12 22.4367 119.24 22.715 119.28 23.035L118.21 23.23C118.174 22.97 118.052 22.765 117.845 22.615C117.639 22.465 117.37 22.3833 117.04 22.37C116.724 22.3567 116.467 22.41 116.27 22.53C116.074 22.6467 115.975 22.8083 115.975 23.015C115.975 23.135 116.012 23.2367 116.085 23.32C116.162 23.4033 116.309 23.4833 116.525 23.56C116.742 23.6367 117.062 23.7283 117.485 23.835C117.939 23.9517 118.299 24.0817 118.565 24.225C118.832 24.365 119.022 24.5333 119.135 24.73C119.252 24.9233 119.31 25.1583 119.31 25.435C119.31 25.9683 119.115 26.3867 118.725 26.69C118.339 26.9933 117.804 27.145 117.12 27.145ZM122.952 27.15C122.435 27.15 122.002 27.025 121.652 26.775C121.302 26.5217 121.037 26.18 120.857 25.75C120.677 25.32 120.587 24.835 120.587 24.295C120.587 23.755 120.675 23.27 120.852 22.84C121.032 22.41 121.295 22.0717 121.642 21.825C121.992 21.575 122.422 21.45 122.932 21.45C123.438 21.45 123.875 21.575 124.242 21.825C124.612 22.0717 124.897 22.41 125.097 22.84C125.297 23.2667 125.397 23.7517 125.397 24.295C125.397 24.835 125.297 25.3217 125.097 25.755C124.9 26.185 124.618 26.525 124.252 26.775C123.888 27.025 123.455 27.15 122.952 27.15ZM120.412 29.4V21.6H121.342V25.485H121.462V29.4H120.412ZM122.807 26.205C123.14 26.205 123.415 26.12 123.632 25.95C123.852 25.78 124.015 25.5517 124.122 25.265C124.232 24.975 124.287 24.6517 124.287 24.295C124.287 23.9417 124.232 23.6217 124.122 23.335C124.015 23.0483 123.85 22.82 123.627 22.65C123.403 22.48 123.118 22.395 122.772 22.395C122.445 22.395 122.175 22.475 121.962 22.635C121.752 22.795 121.595 23.0183 121.492 23.305C121.392 23.5917 121.342 23.9217 121.342 24.295C121.342 24.6683 121.392 24.9983 121.492 25.285C121.592 25.5717 121.75 25.7967 121.967 25.96C122.183 26.1233 122.463 26.205 122.807 26.205ZM126.601 27V19.65H127.646V27H126.601ZM129.247 20.715V19.7H130.292V20.715H129.247ZM129.247 27V21.6H130.292V27H129.247ZM134.884 27C134.544 27.0667 134.21 27.095 133.884 27.085C133.557 27.075 133.265 27.0117 133.009 26.895C132.752 26.7783 132.559 26.595 132.429 26.345C132.312 26.1217 132.249 25.895 132.239 25.665C132.232 25.4317 132.229 25.1683 132.229 24.875V20.1H133.279V24.825C133.279 25.0417 133.28 25.23 133.284 25.39C133.29 25.55 133.325 25.685 133.389 25.795C133.509 26.0017 133.699 26.12 133.959 26.15C134.222 26.1767 134.53 26.165 134.884 26.115V27ZM131.194 22.44V21.6H134.884V22.44H131.194Z" fill="white"/>
<path d="M22.632 62V56.072H21.24V54.296H22.632V52.568H21.24V50.792H22.632V44.864H26.4L28.272 50.792H30.456V44.864H33.12V50.792H34.488V52.568H33.12V54.296H34.488V56.072H33.12V62H29.328L27.408 56.072H25.296V62H22.632ZM25.296 54.296H26.88L26.352 52.568H25.248L25.296 54.296ZM30.528 58.256H30.648L30.552 56.072H29.904L30.528 58.256ZM25.2 50.792H25.872L25.176 48.488H25.08L25.2 50.792ZM29.4 54.296H30.504L30.456 52.568H28.848L29.4 54.296ZM41.3904 62.36C40.2624 62.36 39.2464 62.096 38.3424 61.568C37.4464 61.032 36.7344 60.292 36.2064 59.348C35.6784 58.404 35.4144 57.32 35.4144 56.096V50.84C35.4144 49.528 35.6744 48.388 36.1944 47.42C36.7224 46.452 37.4584 45.704 38.4024 45.176C39.3544 44.648 40.4584 44.384 41.7144 44.384C42.5864 44.384 43.4144 44.532 44.1984 44.828C44.9824 45.116 45.6784 45.58 46.2864 46.22L44.1984 48.248C43.8944 47.888 43.5224 47.604 43.0824 47.396C42.6504 47.188 42.1944 47.084 41.7144 47.084C41.0424 47.084 40.4544 47.244 39.9504 47.564C39.4464 47.876 39.0544 48.288 38.7744 48.8C38.5024 49.312 38.3664 49.86 38.3664 50.444V53.312L37.8384 52.736C38.3344 52.16 38.9304 51.712 39.6264 51.392C40.3224 51.064 41.0504 50.9 41.8104 50.9C42.8984 50.9 43.8584 51.148 44.6904 51.644C45.5224 52.132 46.1784 52.804 46.6584 53.66C47.1384 54.508 47.3784 55.476 47.3784 56.564C47.3784 57.644 47.1024 58.624 46.5504 59.504C46.0064 60.376 45.2824 61.072 44.3784 61.592C43.4744 62.104 42.4784 62.36 41.3904 62.36ZM41.3904 59.588C41.9504 59.588 42.4624 59.456 42.9264 59.192C43.3904 58.92 43.7584 58.556 44.0304 58.1C44.3104 57.636 44.4504 57.124 44.4504 56.564C44.4504 56.004 44.3144 55.492 44.0424 55.028C43.7704 54.564 43.4024 54.196 42.9384 53.924C42.4824 53.644 41.9744 53.504 41.4144 53.504C40.8544 53.504 40.3424 53.644 39.8784 53.924C39.4144 54.196 39.0464 54.564 38.7744 55.028C38.5024 55.492 38.3664 56.004 38.3664 56.564C38.3664 57.108 38.4984 57.612 38.7624 58.076C39.0344 58.532 39.3984 58.9 39.8544 59.18C40.3184 59.452 40.8304 59.588 41.3904 59.588ZM54.4446 62.36C53.5646 62.36 52.7446 62.18 51.9846 61.82C51.2246 61.452 50.5686 60.948 50.0166 60.308C49.4726 59.668 49.0806 58.924 48.8406 58.076L51.6246 57.332C51.7366 57.796 51.9406 58.196 52.2366 58.532C52.5406 58.868 52.8926 59.128 53.2926 59.312C53.7006 59.496 54.1206 59.588 54.5526 59.588C55.1126 59.588 55.6246 59.452 56.0886 59.18C56.5526 58.908 56.9206 58.544 57.1926 58.088C57.4646 57.624 57.6006 57.112 57.6006 56.552C57.6006 55.992 57.4606 55.484 57.1806 55.028C56.9086 54.564 56.5406 54.2 56.0766 53.936C55.6126 53.664 55.1046 53.528 54.5526 53.528C53.8886 53.528 53.3366 53.648 52.8966 53.888C52.4646 54.128 52.1326 54.384 51.9006 54.656L49.4286 53.864L49.9566 44.72H59.3406V47.432H51.5046L52.5846 46.412L52.2006 52.772L51.6726 52.124C52.1206 51.716 52.6406 51.412 53.2326 51.212C53.8246 51.012 54.3966 50.912 54.9486 50.912C56.0286 50.912 56.9846 51.16 57.8166 51.656C58.6566 52.144 59.3126 52.812 59.7846 53.66C60.2646 54.508 60.5046 55.472 60.5046 56.552C60.5046 57.632 60.2246 58.612 59.6646 59.492C59.1046 60.364 58.3646 61.06 57.4446 61.58C56.5326 62.1 55.5326 62.36 54.4446 62.36ZM62.1431 65.06L62.3111 63.812C62.6791 63.844 62.9711 63.78 63.1871 63.62C63.4031 63.468 63.5471 63.248 63.6191 62.96C63.6991 62.68 63.7191 62.36 63.6791 62H62.1431V58.916H65.1071V62.12C65.1071 63.168 64.8591 63.96 64.3631 64.496C63.8671 65.032 63.1271 65.22 62.1431 65.06ZM74.6482 62.36C73.5202 62.36 72.5042 62.096 71.6002 61.568C70.7042 61.032 69.9922 60.292 69.4642 59.348C68.9362 58.404 68.6722 57.32 68.6722 56.096V50.84C68.6722 49.528 68.9322 48.388 69.4522 47.42C69.9802 46.452 70.7162 45.704 71.6602 45.176C72.6122 44.648 73.7162 44.384 74.9722 44.384C75.8442 44.384 76.6722 44.532 77.4562 44.828C78.2402 45.116 78.9362 45.58 79.5442 46.22L77.4562 48.248C77.1522 47.888 76.7802 47.604 76.3402 47.396C75.9082 47.188 75.4522 47.084 74.9722 47.084C74.3002 47.084 73.7122 47.244 73.2082 47.564C72.7042 47.876 72.3122 48.288 72.0322 48.8C71.7602 49.312 71.6242 49.86 71.6242 50.444V53.312L71.0962 52.736C71.5922 52.16 72.1882 51.712 72.8842 51.392C73.5802 51.064 74.3082 50.9 75.0682 50.9C76.1562 50.9 77.1162 51.148 77.9482 51.644C78.7802 52.132 79.4362 52.804 79.9162 53.66C80.3962 54.508 80.6362 55.476 80.6362 56.564C80.6362 57.644 80.3602 58.624 79.8082 59.504C79.2642 60.376 78.5402 61.072 77.6362 61.592C76.7322 62.104 75.7362 62.36 74.6482 62.36ZM74.6482 59.588C75.2082 59.588 75.7202 59.456 76.1842 59.192C76.6482 58.92 77.0162 58.556 77.2882 58.1C77.5682 57.636 77.7082 57.124 77.7082 56.564C77.7082 56.004 77.5722 55.492 77.3002 55.028C77.0282 54.564 76.6602 54.196 76.1962 53.924C75.7402 53.644 75.2322 53.504 74.6722 53.504C74.1122 53.504 73.6002 53.644 73.1362 53.924C72.6722 54.196 72.3042 54.564 72.0322 55.028C71.7602 55.492 71.6242 56.004 71.6242 56.564C71.6242 57.108 71.7562 57.612 72.0202 58.076C72.2922 58.532 72.6562 58.9 73.1122 59.18C73.5762 59.452 74.0882 59.588 74.6482 59.588ZM88.7944 62.36C87.5704 62.36 86.4904 62.1 85.5544 61.58C84.6184 61.052 83.8864 60.32 83.3584 59.384C82.8384 58.448 82.5784 57.368 82.5784 56.144V50.576C82.5784 49.352 82.8384 48.272 83.3584 47.336C83.8864 46.4 84.6184 45.672 85.5544 45.152C86.4904 44.624 87.5704 44.36 88.7944 44.36C90.0184 44.36 91.0944 44.624 92.0224 45.152C92.9584 45.672 93.6904 46.4 94.2184 47.336C94.7464 48.272 95.0104 49.352 95.0104 50.576V56.144C95.0104 57.368 94.7464 58.448 94.2184 59.384C93.6904 60.32 92.9584 61.052 92.0224 61.58C91.0944 62.1 90.0184 62.36 88.7944 62.36ZM88.7944 59.612C89.4024 59.612 89.9544 59.468 90.4504 59.18C90.9464 58.884 91.3384 58.492 91.6264 58.004C91.9144 57.508 92.0584 56.956 92.0584 56.348V50.36C92.0584 49.744 91.9144 49.192 91.6264 48.704C91.3384 48.208 90.9464 47.816 90.4504 47.528C89.9544 47.232 89.4024 47.084 88.7944 47.084C88.1864 47.084 87.6344 47.232 87.1384 47.528C86.6424 47.816 86.2504 48.208 85.9624 48.704C85.6744 49.192 85.5304 49.744 85.5304 50.36V56.348C85.5304 56.956 85.6744 57.508 85.9624 58.004C86.2504 58.492 86.6424 58.884 87.1384 59.18C87.6344 59.468 88.1864 59.612 88.7944 59.612ZM103.591 62.36C102.367 62.36 101.287 62.1 100.351 61.58C99.4153 61.052 98.6833 60.32 98.1553 59.384C97.6353 58.448 97.3753 57.368 97.3753 56.144V50.576C97.3753 49.352 97.6353 48.272 98.1553 47.336C98.6833 46.4 99.4153 45.672 100.351 45.152C101.287 44.624 102.367 44.36 103.591 44.36C104.815 44.36 105.891 44.624 106.819 45.152C107.755 45.672 108.487 46.4 109.015 47.336C109.543 48.272 109.807 49.352 109.807 50.576V56.144C109.807 57.368 109.543 58.448 109.015 59.384C108.487 60.32 107.755 61.052 106.819 61.58C105.891 62.1 104.815 62.36 103.591 62.36ZM103.591 59.612C104.199 59.612 104.751 59.468 105.247 59.18C105.743 58.884 106.135 58.492 106.423 58.004C106.711 57.508 106.855 56.956 106.855 56.348V50.36C106.855 49.744 106.711 49.192 106.423 48.704C106.135 48.208 105.743 47.816 105.247 47.528C104.751 47.232 104.199 47.084 103.591 47.084C102.983 47.084 102.431 47.232 101.935 47.528C101.439 47.816 101.047 48.208 100.759 48.704C100.471 49.192 100.327 49.744 100.327 50.36V56.348C100.327 56.956 100.471 57.508 100.759 58.004C101.047 58.492 101.439 58.884 101.935 59.18C102.431 59.468 102.983 59.612 103.591 59.612Z" fill="white"/>
<path d="M21.84 85V76.36H22.65L26.046 83.626L29.424 76.36H30.246V84.994H29.406V78.328L26.328 85H25.758L22.686 78.328V85H21.84ZM34.6358 85.18C33.9918 85.18 33.4418 85.034 32.9858 84.742C32.5298 84.45 32.1798 84.046 31.9358 83.53C31.6918 83.014 31.5698 82.422 31.5698 81.754C31.5698 81.074 31.6938 80.478 31.9418 79.966C32.1898 79.454 32.5418 79.056 32.9978 78.772C33.4578 78.484 34.0038 78.34 34.6358 78.34C35.2838 78.34 35.8358 78.486 36.2918 78.778C36.7518 79.066 37.1018 79.468 37.3418 79.984C37.5858 80.496 37.7078 81.086 37.7078 81.754C37.7078 82.434 37.5858 83.032 37.3418 83.548C37.0978 84.06 36.7458 84.46 36.2858 84.748C35.8258 85.036 35.2758 85.18 34.6358 85.18ZM34.6358 84.334C35.3558 84.334 35.8918 84.096 36.2438 83.62C36.5958 83.14 36.7718 82.518 36.7718 81.754C36.7718 80.97 36.5938 80.346 36.2378 79.882C35.8858 79.418 35.3518 79.186 34.6358 79.186C34.1518 79.186 33.7518 79.296 33.4358 79.516C33.1238 79.732 32.8898 80.034 32.7338 80.422C32.5818 80.806 32.5058 81.25 32.5058 81.754C32.5058 82.534 32.6858 83.16 33.0458 83.632C33.4058 84.1 33.9358 84.334 34.6358 84.334ZM43.7114 85V81.694C43.7114 81.334 43.6774 81.004 43.6094 80.704C43.5414 80.4 43.4314 80.136 43.2794 79.912C43.1314 79.684 42.9374 79.508 42.6974 79.384C42.4614 79.26 42.1734 79.198 41.8334 79.198C41.5214 79.198 41.2454 79.252 41.0054 79.36C40.7694 79.468 40.5694 79.624 40.4054 79.828C40.2454 80.028 40.1234 80.272 40.0394 80.56C39.9554 80.848 39.9134 81.176 39.9134 81.544L39.2894 81.406C39.2894 80.742 39.4054 80.184 39.6374 79.732C39.8694 79.28 40.1894 78.938 40.5974 78.706C41.0054 78.474 41.4734 78.358 42.0014 78.358C42.3894 78.358 42.7274 78.418 43.0154 78.538C43.3074 78.658 43.5534 78.82 43.7534 79.024C43.9574 79.228 44.1214 79.462 44.2454 79.726C44.3694 79.986 44.4594 80.264 44.5154 80.56C44.5714 80.852 44.5994 81.144 44.5994 81.436V85H43.7114ZM39.0254 85V78.52H39.8234V80.116H39.9134V85H39.0254ZM48.8515 85.18C48.2195 85.18 47.6715 85.04 47.2075 84.76C46.7475 84.48 46.3895 84.086 46.1335 83.578C45.8775 83.07 45.7495 82.474 45.7495 81.79C45.7495 81.082 45.8755 80.47 46.1275 79.954C46.3795 79.438 46.7335 79.04 47.1895 78.76C47.6495 78.48 48.1915 78.34 48.8155 78.34C49.4555 78.34 50.0015 78.488 50.4535 78.784C50.9055 79.076 51.2475 79.496 51.4795 80.044C51.7115 80.592 51.8175 81.246 51.7975 82.006H50.8975V81.694C50.8815 80.854 50.6995 80.22 50.3515 79.792C50.0075 79.364 49.5035 79.15 48.8395 79.15C48.1435 79.15 47.6095 79.376 47.2375 79.828C46.8695 80.28 46.6855 80.924 46.6855 81.76C46.6855 82.576 46.8695 83.21 47.2375 83.662C47.6095 84.11 48.1355 84.334 48.8155 84.334C49.2795 84.334 49.6835 84.228 50.0275 84.016C50.3755 83.8 50.6495 83.49 50.8495 83.086L51.6715 83.404C51.4155 83.968 51.0375 84.406 50.5375 84.718C50.0415 85.026 49.4795 85.18 48.8515 85.18ZM46.3735 82.006V81.268H51.3235V82.006H46.3735ZM53.9359 87.88L55.1899 84.478L55.2079 85.486L52.3699 78.52H53.3059L55.6339 84.346H55.2499L57.3979 78.52H58.2979L54.8179 87.88H53.9359ZM64.1603 85.174C63.4003 85.174 62.7743 85.01 62.2823 84.682C61.7943 84.354 61.4943 83.898 61.3823 83.314L62.2823 83.164C62.3783 83.532 62.5963 83.826 62.9363 84.046C63.2803 84.262 63.7043 84.37 64.2083 84.37C64.7003 84.37 65.0883 84.268 65.3723 84.064C65.6563 83.856 65.7983 83.574 65.7983 83.218C65.7983 83.018 65.7523 82.856 65.6603 82.732C65.5723 82.604 65.3903 82.486 65.1143 82.378C64.8383 82.27 64.4263 82.142 63.8783 81.994C63.2903 81.834 62.8303 81.674 62.4983 81.514C62.1663 81.354 61.9303 81.17 61.7903 80.962C61.6503 80.75 61.5803 80.492 61.5803 80.188C61.5803 79.82 61.6843 79.498 61.8923 79.222C62.1003 78.942 62.3883 78.726 62.7563 78.574C63.1243 78.418 63.5523 78.34 64.0403 78.34C64.5283 78.34 64.9643 78.42 65.3483 78.58C65.7363 78.736 66.0483 78.956 66.2843 79.24C66.5203 79.524 66.6603 79.854 66.7043 80.23L65.8043 80.392C65.7443 80.012 65.5543 79.712 65.2343 79.492C64.9183 79.268 64.5163 79.152 64.0283 79.144C63.5683 79.132 63.1943 79.22 62.9063 79.408C62.6183 79.592 62.4743 79.838 62.4743 80.146C62.4743 80.318 62.5263 80.466 62.6303 80.59C62.7343 80.71 62.9223 80.824 63.1943 80.932C63.4703 81.04 63.8623 81.158 64.3703 81.286C64.9663 81.438 65.4343 81.598 65.7743 81.766C66.1143 81.934 66.3563 82.132 66.5003 82.36C66.6443 82.588 66.7163 82.87 66.7163 83.206C66.7163 83.818 66.4883 84.3 66.0323 84.652C65.5803 85 64.9563 85.174 64.1603 85.174ZM70.789 85.18C70.157 85.18 69.609 85.04 69.145 84.76C68.685 84.48 68.327 84.086 68.071 83.578C67.815 83.07 67.687 82.474 67.687 81.79C67.687 81.082 67.813 80.47 68.065 79.954C68.317 79.438 68.671 79.04 69.127 78.76C69.587 78.48 70.129 78.34 70.753 78.34C71.393 78.34 71.939 78.488 72.391 78.784C72.843 79.076 73.185 79.496 73.417 80.044C73.649 80.592 73.755 81.246 73.735 82.006H72.835V81.694C72.819 80.854 72.637 80.22 72.289 79.792C71.945 79.364 71.441 79.15 70.777 79.15C70.081 79.15 69.547 79.376 69.175 79.828C68.807 80.28 68.623 80.924 68.623 81.76C68.623 82.576 68.807 83.21 69.175 83.662C69.547 84.11 70.073 84.334 70.753 84.334C71.217 84.334 71.621 84.228 71.965 84.016C72.313 83.8 72.587 83.49 72.787 83.086L73.609 83.404C73.353 83.968 72.975 84.406 72.475 84.718C71.979 85.026 71.417 85.18 70.789 85.18ZM68.311 82.006V81.268H73.261V82.006H68.311ZM79.5708 85V81.694C79.5708 81.334 79.5368 81.004 79.4688 80.704C79.4008 80.4 79.2908 80.136 79.1388 79.912C78.9908 79.684 78.7968 79.508 78.5568 79.384C78.3208 79.26 78.0328 79.198 77.6928 79.198C77.3808 79.198 77.1048 79.252 76.8648 79.36C76.6288 79.468 76.4288 79.624 76.2648 79.828C76.1048 80.028 75.9828 80.272 75.8988 80.56C75.8148 80.848 75.7728 81.176 75.7728 81.544L75.1488 81.406C75.1488 80.742 75.2648 80.184 75.4968 79.732C75.7288 79.28 76.0488 78.938 76.4568 78.706C76.8648 78.474 77.3328 78.358 77.8608 78.358C78.2488 78.358 78.5868 78.418 78.8748 78.538C79.1668 78.658 79.4128 78.82 79.6128 79.024C79.8168 79.228 79.9808 79.462 80.1048 79.726C80.2288 79.986 80.3188 80.264 80.3748 80.56C80.4308 80.852 80.4588 81.144 80.4588 81.436V85H79.5708ZM74.8848 85V78.52H75.6828V80.116H75.7728V85H74.8848ZM85.5438 85C85.1798 85.076 84.8198 85.106 84.4638 85.09C84.1118 85.074 83.7958 84.998 83.5158 84.862C83.2398 84.726 83.0298 84.514 82.8858 84.226C82.7698 83.986 82.7058 83.744 82.6938 83.5C82.6858 83.252 82.6818 82.97 82.6818 82.654V76.72H83.5578V82.618C83.5578 82.89 83.5598 83.118 83.5638 83.302C83.5718 83.482 83.6138 83.642 83.6898 83.782C83.8338 84.05 84.0618 84.21 84.3738 84.262C84.6898 84.314 85.0798 84.302 85.5438 84.226V85ZM81.2958 79.276V78.52H85.5438V79.276H81.2958Z" fill="white"/>
<defs>
<clipPath id="clip0_8533_484">
<rect width="12" height="12" fill="white" transform="translate(29 17)"/>
</clipPath>
</defs>
</svg>
